PathFileType	4	(X/Y/Z)	49_1_rein_31_p1_0-295_filt_butterworth.trc
DataRate	CameraRate	NumFrames	NumMarkers	Units	OrigDataRate	OrigDataStartFrame	OrigNumFrames
44.0	44.0	6	27	m	44.0	221	295
Frame#	Time	RHip			RKnee			RAnkle			RBigToe			RSmallToe			RHeel			LHip			LKnee			LAnkle			LBigToe			LSmallToe			LHeel			Neck			Head			Nose			RShoulder			RElbow			RWrist			RThumb			RIndex			RPinky			LShoulder			LElbow			LWrist			LThumb			LIndex			LPinky			
		X1	Y1	Z1	X2	Y2	Z2	X3	Y3	Z3	X4	Y4	Z4	X5	Y5	Z5	X6	Y6	Z6	X7	Y7	Z7	X8	Y8	Z8	X9	Y9	Z9	X10	Y10	Z10	X11	Y11	Z11	X12	Y12	Z12	X13	Y13	Z13	X14	Y14	Z14	X15	Y15	Z15	X16	Y16	Z16	X17	Y17	Z17	X18	Y18	Z18	X19	Y19	Z19	X20	Y20	Z20	X21	Y21	Z21	X22	Y22	Z22	X23	Y23	Z23	X24	Y24	Z24	X25	Y25	Z25	X26	Y26	Z26	X27	Y27	Z27	
221	5.0227272727272725	0.3848156936790473	0.5934937838761924	0.7277790373893107	0.3506622193693537	0.8310013477638952	1.1806432271089307	0.3172554722795772	1.05095839140541	1.5899920163321761	0.3102669016857952	0.8395965429079693	1.666536473417364	0.3754324714173838	0.8637968452268937	1.6650017570792917	0.3086720244415927	1.1119161359687086	1.6201796185474815	0.1730377320403435	0.6299934795734987	0.7150486579821761	0.17365191302821886	0.8592033683909712	1.1700401733774866	0.18499459763139786	1.0396059609329402	1.5694121210486158	0.16029435948770018	0.8566287008607607	1.6619997826149386	0.1077917321016372	0.9189955381909104	1.6566457332345832	0.20295857757758992	1.1238556791872405	1.6229481238158978	0.27689054661396695	0.429786895782004	0.26433876621121455	0.2907341344654709	0.2621616435353277	0.05361425732552659	0.2750018863477616	0.2416169523055937	0.2054585131343574	0.4394626583618984	0.44649250596141044	0.32866204226063933	0.4871552719166904	0.538104174639179	0.5778697585043007	0.45998034902785534	0.5206317031273792	0.8286044386740112	0.3749245229832577	0.538352688630773	0.941707477569793	0.39283911312364006	0.5104610349762767	0.9566652521387388	0.4512085916579486	0.5813994256920083	0.9540101522369038	0.1164033421568417	0.4986774207984754	0.29423556930927	0.04880722346340887	0.5780676228229699	0.5305672429700742	0.07024957696933691	0.5581700860803798	0.7833720175136274	0.1372653113986834	0.5246323485914702	0.878551904284904	0.12523560521941662	0.5281994906087959	0.8956263158179428	0.0832484804920401	0.5947725086467872	0.8962240926435467
222	5.045454545454546	0.3856136458642854	0.5892171932409492	0.7280333746868902	0.3501772369078388	0.8317960732890206	1.180816498034986	0.31721732214102144	1.050917687762842	1.5899969411414305	0.3093303557073348	0.8364716396644817	1.6667674425314085	0.37427936838137976	0.8687838787801727	1.6662706321034908	0.30865845333442843	1.1118537918290208	1.6201639612683731	0.1728949099905031	0.6307078808275197	0.7150513180974545	0.17336155678337645	0.8595682486782286	1.1698843992176822	0.18494500328132146	1.0404038618206037	1.5689812826021918	0.1604163948069551	0.8570818252110646	1.6630639276005885	0.1078781133081064	0.9191523655055621	1.6569081770566876	0.2020516103288435	1.1330406551025403	1.6246456535821376	0.27686195837662786	0.42955987189839556	0.2634128972570051	0.2907108703171302	0.26212756630024286	0.05365731372314171	0.2749128470389343	0.24197849030792326	0.20511603150001279	0.43935521710104836	0.44688302590970985	0.32846980641303647	0.48722572811563813	0.5383083645100216	0.5793621466683189	0.4618313967661498	0.5206196357334192	0.8285814294827779	0.3788354826156714	0.5444731326830355	0.941883734155671	0.3947386497408411	0.5171422843333554	0.9566914789695407	0.45155497550516105	0.5813708013185744	0.9541392466428307	0.11640106736651136	0.498692863053811	0.2942528055763409	0.04859913621431841	0.5785830980544544	0.53022736201839	0.06635280686919927	0.5634724972808719	0.7830910690179803	0.1368690081028491	0.5249401533321606	0.8785635306473647	0.1251114628617247	0.5284011208007382	0.8966500233237962	0.0801673472170889	0.5950666891170197	0.8954582712304031
223	5.068181818181818	0.38568645848421357	0.5886749102343655	0.7279106100925092	0.3498278770062945	0.8320224694147758	1.1807771529775626	0.3172471197715656	1.0510937838815486	1.5900437022244915	0.30894967059852396	0.8353516416119015	1.6680898504105905	0.3727911427459896	0.8765970222299487	1.6681333550277628	0.3086491182332537	1.111901534212007	1.6201700925784364	0.17279665013832216	0.6307619251299001	0.7150477861574344	0.1732795372932161	0.8595776516965854	1.1698581667060075	0.18508603383802197	1.0401133782168288	1.5683559020615971	0.15984161983997935	0.8572959222450198	1.663665233297441	0.10798418688109647	0.9191606218849666	1.6567600519733583	0.2022793336785793	1.1407845416863565	1.626087005107695	0.2768523873999212	0.42955828789591727	0.2633285423146975	0.29065174696495377	0.2621539113501918	0.05366498276512308	0.2740505263284636	0.24524101789475417	0.20450790537283384	0.4394507982299094	0.44640968190415614	0.32865531393774117	0.4872611169157777	0.5384095864035643	0.5807409540548633	0.46279467906224675	0.5206983176996071	0.8285566094977608	0.38130048636011227	0.548453507279349	0.9417354860276268	0.3970530845583372	0.5248158291548961	0.9567197617959973	0.4524577199782278	0.5808610927590726	0.9540753763722997	0.11638712173024533	0.4987408230900863	0.2942689809168735	0.047283818114374786	0.5825313681696308	0.5286641696416305	0.06411252004018363	0.5669406848149445	0.7829506432489837	0.134607985521564	0.5281294685506235	0.8784528700420167	0.1249952711576344	0.5285172373605108	0.8967249706247082	0.07865103810181553	0.595575711063296	0.8953474285531137
224	5.090909090909091	0.3855325654037274	0.5893454833933964	0.7279933518211973	0.3497947623713107	0.8309217441524744	1.1806550602240056	0.31742286032506767	1.051776595283581	1.5901846748542674	0.3088241882284785	0.8356507894422432	1.6695615124588992	0.3719334915163811	0.8813990785872423	1.6692033894249232	0.30865698678359804	1.1120191709488072	1.6201765147467035	0.17273519831729608	0.630299834005704	0.7148715004008309	0.17333073597692353	0.8595555426207347	1.1699081091784298	0.18486284127078942	1.0372453785383762	1.5689027223040148	0.15941232069521524	0.8569014585018255	1.6628246020482482	0.10790605634942822	0.9191711527077613	1.6565786306543901	0.20251980887667612	1.1413265287184997	1.6266107931972256	0.27683478302757614	0.429622657865032	0.2634323628921803	0.29063816423361294	0.26205150346084854	0.0535987889490909	0.2726824402097643	0.25029770335538365	0.20318665572586966	0.43949157577894715	0.44605116249597315	0.3286696022122066	0.4872865253145659	0.5382522009704942	0.5812936050333746	0.46286105339215455	0.5208432705557241	0.828548649714607	0.38162324827369976	0.5491655958186006	0.941708683681526	0.39888571996591393	0.5309069510272277	0.9567237237698294	0.45469529921396656	0.5799540787725213	0.9532867916040288	0.11636269918470799	0.49879389266347957	0.2942766194788701	0.045303211612429485	0.5885861515751305	0.5262416424796339	0.06385429816501456	0.5673160082450708	0.7829609771163766	0.13113140994003558	0.5331511175041103	0.8781673006506443	0.12490265693094178	0.5285360693332943	0.896535502868361	0.07608312301522005	0.596086081364273	0.8954969387932108
225	5.113636363636363	0.38538915766873927	0.5898006879209597	0.7290338731934336	0.35006208716718024	0.8293755061070271	1.1805851568541719	0.3173245907364165	1.051311433004507	1.5900967165003064	0.3088080772690168	0.8357832223271059	1.6689642550660162	0.37179539605831546	0.8820242311931263	1.669287356685071	0.3086606125816924	1.1121079068360973	1.6202195230169139	0.17270139157584308	0.6300529037677756	0.7148669469152722	0.17338071250592962	0.8596242963408942	1.1699598699269171	0.18459755023387517	1.034784139064648	1.5686255812637662	0.15949990782644574	0.8564079426789002	1.6617184471934783	0.10794471557509437	0.9191655212554911	1.6565686355969385	0.20276384187795998	1.1358991341479487	1.6250407758987544	0.2767999355757723	0.42963392443772686	0.2633447168357222	0.2907433346798451	0.2616188868884839	0.05354336972505295	0.27180346324205257	0.2535264492156597	0.2022019158989816	0.43961465464001304	0.4456748597350065	0.32899969697237325	0.4873946724220095	0.5379398963966932	0.5805334673545937	0.4627208102233292	0.5209250891229588	0.828554355186995	0.3813758590926568	0.5487737358506535	0.9417287998424793	0.39940289934638085	0.53394433951306	0.9567756956831731	0.4569814316440122	0.5806799105638922	0.9520517688399754	0.11634451498807674	0.4988289940316149	0.29427162316111954	0.04408482559929308	0.5923760163295988	0.5245847348207061	0.0641609376482433	0.5667342140851993	0.782903196445044	0.1289326348066253	0.5365754512993128	0.8781761807871286	0.12476884290600795	0.5286098642365643	0.8964983039177993	0.07280848500578606	0.5960770592007293	0.8957793474498654
226	5.136363636363637	0.3852299092788132	0.5901125562678184	0.7306754747449372	0.35008206705449185	0.8289092349779431	1.180609789578773	0.31614395306414794	1.0468242305363966	1.589224969729401	0.30904374825819725	0.8354891775123081	1.666714470239276	0.3719015491254929	0.8816876616922846	1.669113840092895	0.3086287566772538	1.112058473004345	1.6202735016595742	0.17263697604215975	0.6307509038305847	0.7161323411645203	0.1734866436073656	0.8594047012522208	1.1695551376639894	0.18482393273850786	1.0354265272792684	1.566813401649857	0.1596473264002715	0.8563979592122852	1.6616099438163072	0.10824351378284042	0.9191377312453333	1.6569794110354936	0.2034082781861981	1.1295617813291776	1.6213298536657146	0.2767695334436172	0.42969599053091606	0.26344812237312815	0.2906207349073902	0.2620206211220267	0.05354052939603593	0.27171890066065146	0.2539274122158556	0.20190976743935263	0.43962253279487085	0.44672180040562703	0.3296580278187221	0.4875042779542741	0.5375032656286827	0.5783947982070938	0.46269337644251757	0.5209142283777194	0.8285544451748778	0.38150962199470195	0.5486311878011897	0.9417304862503657	0.3991081538822705	0.5349298573938704	0.9569760320388614	0.4574794637972267	0.584529998527325	0.9513461371949263	0.11632906431327147	0.4988480193541309	0.29425914603633707	0.0436417064486552	0.5926845607389404	0.5242916749941512	0.0641702822422302	0.5667468085308804	0.783039442734006	0.12875012296510752	0.5377693636788485	0.8791633770613128	0.1246281139714853	0.5288546715532758	0.8965901651929131	0.07043863000573805	0.5955722020267706	0.8966616192918211
